<svg width="100%" viewBox="0 0 380 120" xmlns="http://www.w3.org/2000/svg">

<!-- Icon mark -->
<rect x="10" y="12" width="64" height="64" rx="14" fill="#1D9E75"/>

<!-- top-left corner square -->
<rect x="20" y="22" width="15" height="15" rx="3" fill="#E1F5EE" opacity="0.25"/>
<rect x="23" y="25" width="9" height="9" rx="1.5" fill="#1D9E75"/>
<rect x="25" y="27" width="5" height="5" rx="1" fill="#E1F5EE"/>

<!-- top-right corner square -->
<rect x="49" y="22" width="15" height="15" rx="3" fill="#E1F5EE" opacity="0.25"/>
<rect x="52" y="25" width="9" height="9" rx="1.5" fill="#1D9E75"/>
<rect x="54" y="27" width="5" height="5" rx="1" fill="#E1F5EE"/>

<!-- bottom-left corner square -->
<rect x="20" y="51" width="15" height="15" rx="3" fill="#E1F5EE" opacity="0.25"/>
<rect x="23" y="54" width="9" height="9" rx="1.5" fill="#1D9E75"/>
<rect x="25" y="56" width="5" height="5" rx="1" fill="#E1F5EE"/>

<!-- checkmark bottom-right -->
<path d="M56 56 L63 64 L74 53" fill="none" stroke="#E1F5EE" stroke-width="2.5" stroke-linecap="round" stroke-linejoin="round"/>

<!-- Wordmark -->
<text x="86" y="58" font-family="-apple-system, BlinkMacSystemFont, 'Segoe UI', sans-serif" font-size="48" font-weight="500" letter-spacing="-1.5" fill="#04342C">votu</text>

<!-- Teal underline accent on "o" -->
<rect x="106" y="68" width="26" height="3.5" rx="1.75" fill="#1D9E75"/>

<!-- Tagline -->
<text x="86" y="88" font-family="-apple-system, BlinkMacSystemFont, 'Segoe UI', sans-serif" font-size="13" font-weight="400" letter-spacing="0.5" fill="#0F6E56">Rate what matters.</text>

</svg>
