<svg width="100%" viewBox="0 0 680 200" xmlns="http://www.w3.org/2000/svg">

<!-- Icon mark -->
<rect x="60" y="52" width="96" height="96" rx="22" fill="#1D9E75"/>

<!-- top-left corner square -->
<rect x="76" y="68" width="22" height="22" rx="4" fill="#E1F5EE" opacity="0.25"/>
<rect x="80" y="72" width="14" height="14" rx="2" fill="#1D9E75"/>
<rect x="83" y="75" width="8" height="8" rx="1.5" fill="#E1F5EE"/>

<!-- top-right corner square -->
<rect x="118" y="68" width="22" height="22" rx="4" fill="#E1F5EE" opacity="0.25"/>
<rect x="122" y="72" width="14" height="14" rx="2" fill="#1D9E75"/>
<rect x="125" y="75" width="8" height="8" rx="1.5" fill="#E1F5EE"/>

<!-- bottom-left corner square -->
<rect x="76" y="110" width="22" height="22" rx="4" fill="#E1F5EE" opacity="0.25"/>
<rect x="80" y="114" width="14" height="14" rx="2" fill="#1D9E75"/>
<rect x="83" y="117" width="8" height="8" rx="1.5" fill="#E1F5EE"/>

<!-- checkmark bottom-right -->
<path d="M120 120 L129 130 L146 114" fill="none" stroke="#E1F5EE" stroke-width="3.5" stroke-linecap="round" stroke-linejoin="round"/>

<!-- Wordmark -->
<text x="178" y="114" font-family="-apple-system, BlinkMacSystemFont, 'Segoe UI', sans-serif" font-size="64" font-weight="500" letter-spacing="-2" fill="#04342C">votu</text>

<!-- Teal underline accent on "o" -->
<rect x="207" y="132" width="38" height="5" rx="2.5" fill="#1D9E75"/>

<!-- Tagline -->
<text x="178" y="160" font-family="-apple-system, BlinkMacSystemFont, 'Segoe UI', sans-serif" font-size="14" font-weight="400" letter-spacing="0.5" fill="#0F6E56">Rate what matters.</text>

</svg>
